<mxfile host="app.diagrams.net" modified="2023-04-02T00:32:01.275Z" agent="Mozilla/5.0 (X11; Linux x86_64; rv:109.0) Gecko/20100101 Firefox/111.0" etag="-zKvDtQkCUafpgNIummm" version="21.1.2">
  <diagram name="Page-1" id="vLyoRHqGhNEQGaIb7Agc">
    <mxGraphModel dx="936" dy="619" grid="1" gridSize="10" guides="1" tooltips="1" connect="1" arrows="1" fold="1" page="1" pageScale="1" pageWidth="850" pageHeight="1100" math="0" shadow="0">
      <root>
        <mxCell id="0" />
        <mxCell id="1" parent="0" />
        <mxCell id="eIdnrEQq0wjXOgzqUX2a-1" value="&lt;font style=&quot;font-size: 61px;&quot;&gt;你&lt;br&gt;&lt;/font&gt;" style="text;html=1;strokeColor=none;fillColor=none;align=center;verticalAlign=middle;whiteSpace=wrap;rounded=0;" vertex="1" parent="1">
          <mxGeometry x="235" y="580" width="100" height="30" as="geometry" />
        </mxCell>
        <mxCell id="eIdnrEQq0wjXOgzqUX2a-7" value="&lt;font style=&quot;font-size: 61px;&quot;&gt;好&lt;/font&gt;" style="text;html=1;strokeColor=none;fillColor=none;align=center;verticalAlign=middle;whiteSpace=wrap;rounded=0;" vertex="1" parent="1">
          <mxGeometry x="360" y="580" width="80" height="30" as="geometry" />
        </mxCell>
        <mxCell id="eIdnrEQq0wjXOgzqUX2a-8" value="&lt;font style=&quot;font-size: 61px;&quot;&gt;世&lt;/font&gt;" style="text;html=1;strokeColor=none;fillColor=none;align=center;verticalAlign=middle;whiteSpace=wrap;rounded=0;" vertex="1" parent="1">
          <mxGeometry x="470" y="580" width="80" height="30" as="geometry" />
        </mxCell>
        <mxCell id="eIdnrEQq0wjXOgzqUX2a-10" value="" style="group" vertex="1" connectable="0" parent="1">
          <mxGeometry x="345" y="671" width="110" height="60" as="geometry" />
        </mxCell>
        <mxCell id="eIdnrEQq0wjXOgzqUX2a-4" value="" style="rounded=1;whiteSpace=wrap;html=1;strokeColor=none;fillColor=#f8cecc;" vertex="1" parent="eIdnrEQq0wjXOgzqUX2a-10">
          <mxGeometry x="5" width="100" height="60" as="geometry" />
        </mxCell>
        <mxCell id="eIdnrEQq0wjXOgzqUX2a-6" value="&lt;font style=&quot;font-size: 53px;&quot; data-font-src=&quot;https://fonts.googleapis.com/css?family=Fira+Sans&quot; face=&quot;Fira Sans&quot;&gt;cl3&lt;/font&gt;" style="text;html=1;strokeColor=none;fillColor=none;align=center;verticalAlign=middle;whiteSpace=wrap;rounded=0;" vertex="1" parent="eIdnrEQq0wjXOgzqUX2a-10">
          <mxGeometry y="15" width="110" height="30" as="geometry" />
        </mxCell>
        <mxCell id="eIdnrEQq0wjXOgzqUX2a-11" value="" style="group;fillColor=none;strokeColor=none;" vertex="1" connectable="0" parent="1">
          <mxGeometry x="455" y="671" width="110" height="60" as="geometry" />
        </mxCell>
        <mxCell id="eIdnrEQq0wjXOgzqUX2a-12" value="" style="rounded=1;whiteSpace=wrap;html=1;strokeColor=none;fillColor=#d5e8d4;" vertex="1" parent="eIdnrEQq0wjXOgzqUX2a-11">
          <mxGeometry x="5" width="100" height="60" as="geometry" />
        </mxCell>
        <mxCell id="eIdnrEQq0wjXOgzqUX2a-13" value="&lt;font style=&quot;font-size: 53px;&quot; face=&quot;Fira Sans&quot;&gt;43&lt;br&gt;&lt;/font&gt;" style="text;html=1;strokeColor=none;fillColor=none;align=center;verticalAlign=middle;whiteSpace=wrap;rounded=0;" vertex="1" parent="eIdnrEQq0wjXOgzqUX2a-11">
          <mxGeometry y="15" width="110" height="30" as="geometry" />
        </mxCell>
        <mxCell id="eIdnrEQq0wjXOgzqUX2a-15" value="" style="group" vertex="1" connectable="0" parent="1">
          <mxGeometry x="220" y="671" width="130" height="60" as="geometry" />
        </mxCell>
        <mxCell id="eIdnrEQq0wjXOgzqUX2a-2" value="" style="rounded=1;whiteSpace=wrap;html=1;strokeColor=none;fillColor=#fff2cc;" vertex="1" parent="eIdnrEQq0wjXOgzqUX2a-15">
          <mxGeometry x="10" width="110" height="60" as="geometry" />
        </mxCell>
        <mxCell id="eIdnrEQq0wjXOgzqUX2a-3" value="&lt;font style=&quot;font-size: 53px;&quot; data-font-src=&quot;https://fonts.googleapis.com/css?family=Fira+Sans&quot; face=&quot;Fira Sans&quot;&gt;su3&lt;br&gt;&lt;/font&gt;" style="text;html=1;strokeColor=none;fillColor=none;align=center;verticalAlign=middle;whiteSpace=wrap;rounded=0;" vertex="1" parent="eIdnrEQq0wjXOgzqUX2a-15">
          <mxGeometry y="15" width="130" height="30" as="geometry" />
        </mxCell>
        <mxCell id="eIdnrEQq0wjXOgzqUX2a-18" value="" style="group" vertex="1" connectable="0" parent="1">
          <mxGeometry x="564" y="670" width="110" height="60" as="geometry" />
        </mxCell>
        <mxCell id="eIdnrEQq0wjXOgzqUX2a-19" value="" style="rounded=1;whiteSpace=wrap;html=1;strokeColor=none;fillColor=#e1d5e7;" vertex="1" parent="eIdnrEQq0wjXOgzqUX2a-18">
          <mxGeometry x="5" width="100" height="60" as="geometry" />
        </mxCell>
        <mxCell id="eIdnrEQq0wjXOgzqUX2a-20" value="&lt;font style=&quot;font-size: 45px;&quot; data-font-src=&quot;https://fonts.googleapis.com/css?family=Fira+Sans&quot; face=&quot;Fira Sans&quot;&gt;ru,4&lt;/font&gt;" style="text;html=1;strokeColor=none;fillColor=none;align=center;verticalAlign=middle;whiteSpace=wrap;rounded=0;" vertex="1" parent="eIdnrEQq0wjXOgzqUX2a-18">
          <mxGeometry y="15" width="110" height="30" as="geometry" />
        </mxCell>
        <mxCell id="eIdnrEQq0wjXOgzqUX2a-21" value="&lt;font style=&quot;font-size: 61px;&quot;&gt;界&lt;/font&gt;" style="text;html=1;strokeColor=none;fillColor=none;align=center;verticalAlign=middle;whiteSpace=wrap;rounded=0;" vertex="1" parent="1">
          <mxGeometry x="579" y="580" width="80" height="30" as="geometry" />
        </mxCell>
        <mxCell id="eIdnrEQq0wjXOgzqUX2a-25" value="&lt;font style=&quot;font-size: 22px;&quot; data-font-src=&quot;https://fonts.googleapis.com/css?family=Fira+Sans&quot; face=&quot;Fira Sans&quot;&gt;ni&lt;/font&gt;" style="text;html=1;strokeColor=none;fillColor=none;align=center;verticalAlign=middle;whiteSpace=wrap;rounded=0;" vertex="1" parent="1">
          <mxGeometry x="255" y="624" width="60" height="30" as="geometry" />
        </mxCell>
        <mxCell id="eIdnrEQq0wjXOgzqUX2a-26" value="&lt;font style=&quot;font-size: 22px;&quot; face=&quot;Fira Sans&quot;&gt;hao&lt;/font&gt;" style="text;html=1;strokeColor=none;fillColor=none;align=center;verticalAlign=middle;whiteSpace=wrap;rounded=0;" vertex="1" parent="1">
          <mxGeometry x="370" y="624" width="60" height="30" as="geometry" />
        </mxCell>
        <mxCell id="eIdnrEQq0wjXOgzqUX2a-27" value="&lt;font style=&quot;font-size: 22px;&quot; face=&quot;Fira Sans&quot;&gt;shih&lt;/font&gt;" style="text;html=1;strokeColor=none;fillColor=none;align=center;verticalAlign=middle;whiteSpace=wrap;rounded=0;" vertex="1" parent="1">
          <mxGeometry x="480" y="624" width="60" height="30" as="geometry" />
        </mxCell>
        <mxCell id="eIdnrEQq0wjXOgzqUX2a-28" value="&lt;font data-font-src=&quot;https://fonts.googleapis.com/css?family=Fira+Sans&quot; style=&quot;font-size: 22px;&quot; face=&quot;Fira Sans&quot;&gt;Jieh&lt;br&gt;&lt;/font&gt;" style="text;html=1;strokeColor=none;fillColor=none;align=center;verticalAlign=middle;whiteSpace=wrap;rounded=0;" vertex="1" parent="1">
          <mxGeometry x="589" y="624" width="60" height="30" as="geometry" />
        </mxCell>
      </root>
    </mxGraphModel>
  </diagram>
</mxfile>
